# xmcd
#
# Track frame offsets:
#	150
#	13625
#	27189
#	39668
#	51203
#	64126
#	78584
#	95168
#	107720
#	121154
#	133732
#	147305
#	159911
#	172566
#	187146
#	200632
#	215442
#	229449
#	242978
#	261463
#	273685
#	286482
#	299705
#
# Disc length: 4168 seconds
#
# Revision: 0
# Processed by: cddbd v1.5.2PL0 Copyright (c) Steve Scherf et al.
# Submitted via: EasyCDDAExtractor 10.0.2.1
#
DISCID=6d104617
DTITLE=The Primitive Qt. - The Best OF The Primitive Qt.
DYEAR=2007
DGENRE=Gospel
TTITLE0=Blessings Of A Friend
TTITLE1=Safely Home
TTITLE2=A Letter From Home
TTITLE3=Lord Lead Me Home
TTITLE4=He's Still Passing By
TTITLE5=Family On Both Sides
TTITLE6=I'm Changing Houses
TTITLE7=You've Been An Inspiration
TTITLE8=Love Came Down
TTITLE9=We've Been So Blessed
TTITLE10=Far Side Banks Of Jordan
TTITLE11=A Bright Home
TTITLE12=Reunion In Heaven
TTITLE13=If I Could Telephone Heaven
TTITLE14=God Can't See Through The Blood
TTITLE15=God's Only Son
TTITLE16=It's Him
TTITLE17=Only Gone From Our Sight
TTITLE18=Walking In The Highway
TTITLE19=I Can't But God Can
TTITLE20=Hallelujah, He's Risen
TTITLE21=Where The Roses Never Fade
TTITLE22=No Longer An Orphan
EXTD=
EXTT0=
EXTT1=
EXTT2=
EXTT3=
EXTT4=
EXTT5=
EXTT6=
EXTT7=
EXTT8=
EXTT9=
EXTT10=
EXTT11=
EXTT12=
EXTT13=
EXTT14=
EXTT15=
EXTT16=
EXTT17=
EXTT18=
EXTT19=
EXTT20=
EXTT21=
EXTT22=
PLAYORDER=
